<svg fill="#71975a" enable-background="new 0 0 459.319 459.319" version="1.1" viewBox="0 0 459.32 459.32" xml:space="preserve" xmlns="http://www.w3.org/2000/svg"><path d="m94.924 366.67h312.87c0.958 0 1.886-0.136 2.778-0.349 0.071 0 0.13 0.012 0.201 0.012 6.679 0 12.105-5.42 12.105-12.104v-342.13c1e-3 -6.682-5.426-12.105-12.105-12.105h-315.84c-32.22 0-58.428 26.214-58.428 58.425 0 0.432 0.085 0.842 0.127 1.259-0.042 29.755-0.411 303.17-0.042 339.11-0.023 0.703-0.109 1.389-0.109 2.099 0 30.973 24.252 56.329 54.757 58.245 0.612 0.094 1.212 0.183 1.847 0.183h317.68c6.679 0 12.105-5.42 12.105-12.105v-45.565c0-6.68-5.427-12.105-12.105-12.105s-12.105 5.426-12.105 12.105v33.461h-303.75c-18.395 0-33.411-14.605-34.149-32.817 0.018-0.325 0.077-0.632 0.071-0.963-0.012-0.532-0.03-1.359-0.042-2.459 1.058-17.924 15.935-32.198 34.12-32.198zm8.254-308.25c0-6.682 5.423-12.105 12.105-12.105s12.105 5.423 12.105 12.105v245.88c0 6.679-5.423 12.105-12.105 12.105s-12.105-5.427-12.105-12.105v-245.88z"/></svg>