<svg id="Layer_1" height="512" viewBox="0 0 24 24" width="512" xmlns="http://www.w3.org/2000/svg"><path d="m19.777 6.387h-2.212c-.214 0-.406-.136-.48-.337l-.578-1.592c-.244-.675-.891-1.127-1.608-1.127h-5.797c-.718 0-1.364.452-1.607 1.126l-.579 1.592c-.074.202-.267.338-.48.338h-2.212c-1.557 0-2.822 1.266-2.822 2.821v8.64c0 1.556 1.266 2.821 2.822 2.821h15.555c1.557 0 2.822-1.266 2.822-2.821v-8.64c0-1.556-1.266-2.821-2.822-2.821zm1.623 11.461c0 .895-.729 1.622-1.623 1.622h-15.554c-.895 0-1.623-.728-1.623-1.622v-8.64c0-.895.729-1.622 1.623-1.622h2.212c.716 0 1.361-.452 1.607-1.126l.58-1.594c.072-.2.266-.336.479-.336h5.797c.214 0 .407.136.48.337l.579 1.594c.246.673.892 1.125 1.607 1.125h2.212c.895 0 1.623.728 1.623 1.622v8.64zm-9.4-8.497c-2.261 0-4.1 1.839-4.1 4.1s1.839 4.1 4.1 4.1 4.1-1.839 4.1-4.1-1.839-4.1-4.1-4.1zm0 7c-1.599 0-2.9-1.302-2.9-2.9s1.302-2.9 2.9-2.9 2.9 1.302 2.9 2.9-1.302 2.9-2.9 2.9z"/></svg>