<svg fill="none" height="32" viewBox="0 0 32 32" width="32" xmlns="http://www.w3.org/2000/svg"><g clip-rule="evenodd" fill="rgb(0,0,0)" fill-rule="evenodd"><path d="m6 9c0-1.65685 1.34315-3 3-3h14c1.6569 0 3 1.34315 3 3v5.3792c0 .5523-.4477 1-1 1s-1-.4477-1-1v-5.3792c0-.55228-.4477-1-1-1h-14c-.55228 0-1 .44772-1 1v14c0 .5523.44772 1 1 1h14c.5523 0 1-.4477 1-1v-3.8182c0-.5523.4477-1 1-1s1 .4477 1 1v3.8182c0 1.6569-1.3431 3-3 3h-14c-1.65685 0-3-1.3431-3-3z"/><path d="m20.9859 12.7071c-.3905-.3905-1.0237-.3905-1.4142 0l-4.7779 4.7779-1.6725-1.6725c-.3905-.3906-1.0237-.3906-1.4142 0-.3905.3905-.3905 1.0236 0 1.4142l2.377 2.377c.0009.0009.0017.0017.0026.0026.0488.0488.1014.0915.1569.1282.3881.2562.9156.2135 1.2573-.1282.001-.0009.002-.0019.0029-.0029l5.4821-5.4821c.3905-.3905.3905-1.0237 0-1.4142z"/></g></svg>