<?xml version="1.0" encoding="UTF-8" standalone="no"?>
<!-- Created with Inkscape (http://www.inkscape.org/) -->

<svg
   version="1.1"
   id="svg99"
   xml:space="preserve"
   width="682.66669"
   height="682.66669"
   viewBox="0 0 682.66669 682.66669"
   xmlns="http://www.w3.org/2000/svg"
   xmlns:svg="http://www.w3.org/2000/svg"><defs
     id="defs103"><clipPath
       clipPathUnits="userSpaceOnUse"
       id="clipPath113"><path
         d="M 0,512 H 512 V 0 H 0 Z"
         id="path111" /></clipPath></defs><g
     id="g105"
     transform="matrix(1.3333333,0,0,-1.3333333,0,682.66667)"><g
       id="g107"><g
         id="g109"
         clip-path="url(#clipPath113)"><g
           id="g115"
           transform="translate(316,437)"><path
             d="m 0,0 c 0,-33.137 -26.863,-60 -60,-60 -33.137,0 -60,26.863 -60,60 0,33.137 26.863,60 60,60 C -26.863,60 0,33.137 0,0 Z"
             style="fill:none;stroke:#000000;stroke-width:30;stroke-linecap:butt;stroke-linejoin:miter;stroke-miterlimit:10;stroke-dasharray:none;stroke-opacity:1"
             id="path117" /></g><g
           id="g119"
           transform="translate(44.9897,172.9614)"><path
             d="M 0,0 C 28.698,16.569 65.393,6.736 81.962,-21.961 98.53,-50.659 88.698,-87.354 60,-103.923 31.303,-120.491 -5.393,-110.659 -21.961,-81.961 -38.53,-53.264 -28.697,-16.568 0,0 Z"
             style="fill:none;stroke:#000000;stroke-width:30;stroke-linecap:butt;stroke-linejoin:miter;stroke-miterlimit:10;stroke-dasharray:none;stroke-opacity:1"
             id="path121" /></g><g
           id="g123"
           transform="translate(407.0103,69.0386)"><path
             d="M 0,0 C -28.698,16.568 -38.53,53.264 -21.962,81.961 -5.393,110.659 31.302,120.491 60,103.923 88.697,87.354 98.53,50.659 81.961,21.961 65.393,-6.736 28.697,-16.569 0,0 Z"
             style="fill:none;stroke:#000000;stroke-width:30;stroke-linecap:butt;stroke-linejoin:miter;stroke-miterlimit:10;stroke-dasharray:none;stroke-opacity:1"
             id="path125" /></g><g
           id="g127"
           transform="translate(46.3223,237.7307)"><path
             d="M 0,0 C 3.779,68.639 40.521,128.493 94.662,164"
             style="fill:none;stroke:#000000;stroke-width:30;stroke-linecap:butt;stroke-linejoin:miter;stroke-miterlimit:10;stroke-dasharray:none;stroke-opacity:1"
             id="path129" /></g><g
           id="g131"
           transform="translate(371.0156,401.7312)"><path
             d="M 0,0 C 54.142,-35.508 90.883,-95.362 94.662,-164"
             style="fill:none;stroke:#000000;stroke-width:30;stroke-linecap:butt;stroke-linejoin:miter;stroke-miterlimit:10;stroke-dasharray:none;stroke-opacity:1"
             id="path133" /></g><g
           id="g135"
           transform="translate(350.6543,37.4912)"><path
             d="m 0,0 c -28.442,-14.386 -60.602,-22.491 -94.654,-22.491 -34.053,0 -66.212,8.105 -94.655,22.491"
             style="fill:none;stroke:#000000;stroke-width:30;stroke-linecap:butt;stroke-linejoin:miter;stroke-miterlimit:10;stroke-dasharray:none;stroke-opacity:1"
             id="path137" /></g></g></g></g></svg>
