<svg fill="#E1554E" clip-rule="evenodd" fill-rule="evenodd" height="512" stroke-linejoin="round" stroke-miterlimit="2" viewBox="0 0 24 24" width="512" xmlns="http://www.w3.org/2000/svg"><g id="Icon"><circle cx="11.5" cy="6.744" r="5.5"/><path d="m20.152 13.788-6.364 6.364c-.293.292-.293.768 0 1.06.292.293.768.293 1.06 0l6.364-6.364c.293-.292.293-.768 0-1.06-.292-.293-.768-.293-1.06 0z"/><path d="m17.5 12.25c-2.898 0-5.25 2.352-5.25 5.25s2.352 5.25 5.25 5.25 5.25-2.352 5.25-5.25-2.352-5.25-5.25-5.25zm0 1.5c2.07 0 3.75 1.68 3.75 3.75s-1.68 3.75-3.75 3.75-3.75-1.68-3.75-3.75 1.68-3.75 3.75-3.75z"/><path d="m12.925 21.756c-1.039-1.116-1.675-2.612-1.675-4.256 0-1.683.667-3.212 1.751-4.336-.49-.038-.991-.058-1.501-.058-3.322 0-6.263.831-8.089 2.076-1.393.95-2.161 2.157-2.161 3.424v1.45c0 .451.179.884.498 1.202.319.319.751.498 1.202.498z"/></g></svg>