<?xml version="1.0" encoding="utf-8"?><svg xmlns="http://www.w3.org/2000/svg" viewBox="0 0 24 24">
  <g id="_x33_">
    <path d="m18 2c2.206 0 4 1.794 4 4v12c0 2.206-1.794 4-4 4h-12c-2.206 0-4-1.794-4-4v-12c0-2.206 1.794-4 4-4zm0-2h-12c-3.314 0-6 2.686-6 6v12c0 3.314 2.686 6 6 6h12c3.314 0 6-2.686 6-6v-12c0-3.314-2.686-6-6-6z"/>
  </g>
  <g clip-rule="evenodd" fill="rgb(0,0,0)" fill-rule="evenodd" transform="matrix(1, 0, 0, 1, -4.703276, -5.336245)">
    <path d="M 21.389 14.468 C 20.998 14.077 20.365 14.077 19.975 14.468 L 15.197 19.246 L 13.524 17.573 C 13.134 17.182 12.501 17.182 12.11 17.573 C 11.72 17.964 11.72 18.597 12.11 18.987 L 14.487 21.364 C 14.488 21.365 14.489 21.366 14.49 21.367 C 14.539 21.416 14.591 21.458 14.647 21.495 C 15.035 21.751 15.562 21.709 15.904 21.367 C 15.905 21.366 15.906 21.365 15.907 21.364 L 21.389 15.882 C 21.779 15.491 21.779 14.858 21.389 14.468 Z"/>
  </g>
</svg>