<svg stroke="#a1a0a2" class="svg-stroked" version="1.1" viewBox="0 0 682.67 682.67" xml:space="preserve" xmlns="http://www.w3.org/2000/svg"><defs><clipPath id="a"><path d="m0 512h512v-512h-512z"/></clipPath></defs><g transform="matrix(1.3333 0 0 -1.3333 0 682.67)"><g clip-path="url(#a)"><g transform="translate(316,437)"><path d="m0 0c0-33.137-26.863-60-60-60s-60 26.863-60 60 26.863 60 60 60 60-26.863 60-60z" fill="none" stroke-miterlimit="10" stroke-width="30"/></g><g transform="translate(44.99 172.96)"><path d="m0 0c28.698 16.569 65.393 6.736 81.962-21.961 16.568-28.698 6.736-65.393-21.962-81.962-28.697-16.568-65.393-6.736-81.961 21.962-16.569 28.697-6.736 65.393 21.961 81.961z" fill="none" stroke-miterlimit="10" stroke-width="30"/></g><g transform="translate(407.01 69.039)"><path d="M 0,0 C -28.698,16.568 -38.53,53.264 -21.962,81.961 -5.393,110.659 31.302,120.491 60,103.923 88.697,87.354 98.53,50.659 81.961,21.961 65.393,-6.736 28.697,-16.569 0,0 Z" fill="none" stroke-miterlimit="10" stroke-width="30"/></g><g transform="translate(46.322 237.73)"><path d="m0 0c3.779 68.639 40.521 128.49 94.662 164" fill="none" stroke-miterlimit="10" stroke-width="30"/></g><g transform="translate(371.02 401.73)"><path d="m0 0c54.142-35.508 90.883-95.362 94.662-164" fill="none" stroke-miterlimit="10" stroke-width="30"/></g><g transform="translate(350.65 37.491)"><path d="m0 0c-28.442-14.386-60.602-22.491-94.654-22.491-34.053 0-66.212 8.105-94.655 22.491" fill="none" stroke-miterlimit="10" stroke-width="30"/></g></g></g></svg>