<svg fill="#E1554E" version="1.2" xmlns="http://www.w3.org/2000/svg" viewBox="0 0 512 512" width="512" height="512"><path  d="m256.9 43.4h191.3c11.8 0 21.3 9.5 21.3 21.2v382.8c0 11.7-9.6 21.2-21.3 21.2h-191.3c-11.8 0-21.3 9.5-21.3 21.3 0 11.7 9.5 21.2 21.3 21.2h191.3c35.2 0 63.8-28.6 63.8-63.7v-382.8c0-35.1-28.6-63.8-63.8-63.8h-191.3c-11.8 0-21.3 9.6-21.3 21.3 0 11.8 9.5 21.3 21.3 21.3z"/><path  d="m6.3 271.1l129.3 127.6c8.3 8.3 21.8 8.2 30.1-0.2 8.2-8.4 8.1-21.8-0.2-30.1l-92.4-91.1h247.5c11.8 0 21.3-9.5 21.3-21.3 0-11.8-9.5-21.3-21.3-21.3h-247.5l92.4-91.1c8.3-8.3 8.4-21.7 0.2-30.1-4.2-4.2-9.7-6.3-15.2-6.3-5.4 0-10.8 2-14.9 6.1l-129.3 127.6c-4 4-6.3 9.4-6.3 15.1 0 5.7 2.3 11.1 6.3 15.1z"/></svg>