<?xml version="1.0" encoding="utf-8"?>
<!-- Generator: Adobe Illustrator 24.1.2, SVG Export Plug-In . SVG Version: 6.00 Build 0)  -->
<svg version="1.1" id="Layer_1" xmlns="http://www.w3.org/2000/svg" xmlns:xlink="http://www.w3.org/1999/xlink" x="0px" y="0px"
	 viewBox="0 0 1000 1030.7" style="enable-background:new 0 0 1000 1030.7;" xml:space="preserve">
<style type="text/css">
	.st0{fill:#191919;}
</style>
<g transform="translate(0.000000,1080.000000) scale(0.100000,-0.100000)">
	<path d="M4913.1,10280.1c-62-8-90-15-151-40c-162-67-280-173-357-323c-96-188-69-497,56-634c20-22,36-44,36-49
		c0-10,101-104,112-104c4,0,27-13,51-30c25-16,52-30,60-30s20-7,27-15s16-12,21-10c4,3,25-2,46-11c48-20,174-31,243-21
		c71,10,112,23,162,48c10,5,25,9,33,9c15,0,51,24,139,91c173,131,271,431,207,635c-35,110-108,253-135,264c-13,5-27,18-31,29
		c-3,11-22,30-41,41c-18,12-34,25-34,29s-30,22-67,41c-38,18-77,38-88,43c-20,11-80,25-125,31c-14,2-41,6-60,9
		S4951.1,10284.1,4913.1,10280.1z"/>
	<path class="st0" d="M2390.1,7971.1c-667-669-1229-1239-1248-1268c-43-64-215-399-215-419c0-8-14-69-31-137c-52-206-59-247-69-402
		c-5-82-12-185-15-228c-12-186,32-355,165-632c27-56,66-121,87-145c21-25,45-58,53-73c7-15,28-45,45-65s42-55,55-77
		c13-22,39-58,57-80c34-40,91-109,173-210c37-45,179-201,220-240c6-5,39-39,75-75c36-36,70-69,76-75c6-5,21-21,35-35
		c13-14,28-29,34-35c6-5,36-36,68-69c81-84,396-390,434-432c9-11,46-48,82-82c36-35,114-109,148-142c67-65,207-165,278-197
		c25-12,88-41,140-66c110-52,250-99,331-111c20-3,49-10,65-17c46-17,274-20,372-3c48,8,98,16,112,18c108,16,259,66,268,66
		c23,0,143,73,238,144c106,79,170,142,1116,1084c717,714,819,819,829,856c6,22,22,78,36,124c32,112,45,225,46,417
		c0,147-19,380-43,515c-5,30-19,132-30,225c-12,94-26,195-32,225c-7,30-12,76-13,102c-2,43-17,78-34,78c-3,0-195-189-426-420
		c-231-231-475-455-513-497c-127-140-1521-1528-1544-1537c-13-5-41-18-62-28c-34-15-50-17-123-8c-89,10-142,23-183,46
		c-14,8-49,26-78,40c-29,14-480,462-524,510c-9,11-22,24-28,29c-6,6-21,21-34,35c-12,14-31,32-42,41c-10,10-29,28-41,40
		c-12,13-26,29-33,34c-6,6-40,40-75,78c-35,37-68,67-74,67c-6,0-11,4-11,9s-82,91-181,191c-169,170-184,187-214,259
		c-70,161-69,314,1,454c38,74,81,119,1212,1251c952,954,1172,1179,1172,1200c0,16-10,35-27,49c-14,12-34,30-43,41
		c-10,10-24,25-32,34c-9,8-25,24-37,36c-8.4,8.3-642.9,646.9-691,695c-6.6,6.6-49.5,36.6-58,29
		C3602.7,9182.4,3056.1,8640.1,2390.1,7971.1z"/>
	<path class="st0" d="M6202.1,8639.1c-22-4-56-10-75-14c-53-10-183-34-205-38c-41-7-150-49-176-68c-15-10-30-19-34-19
		c-20,0-218-161-344-280c-245-231-1718-1704-1724-1725c-78-265-88-330-90-565c-1-139,15-332,43-520c34-234,59-424,68-526
		c7-67,24-108,44-102c4,2,198,191,431,421c232,230,442,437,466,460s388,386,808,807c876,878,801,816,970,800c50-4,100-13,111-19
		c12-6,29-11,40-11s25-6,31-14c7-8,31-23,54-34c28-13,125-104,287-266c135-135,251-252,258-259c7-6,41-41,75-76s68-68,75-75
		c7-6,21-19,30-28s128-129,265-266c239-241,248-251,281-328c64-149,68-299,10-439c-29-70-35-76-1209-1252
		c-886-888-1181-1189-1183-1209c-3-22,10-41,75-105c43-43,765-771,780-778c26-12,39,0,1240,1201c850,849,1227,1233,1257,1278
		c52,78,216,399,216,422c0,8,12,60,26,114c15,55,30,119,35,143c5,23,13,59,19,80c5,20,16,142,24,271c17,274,11,357-36,500
		c-51,153-155,372-206,432c-15,18-43,58-62,88s-40,58-46,62c-7,5-24,29-39,55c-16,27-43,63-61,82c-19,19-34,38-34,43
		c0,4-22,33-50,63c-27,30-50,59-50,63s-20,30-45,57c-25,28-64,72-88,98c-23,27-51,56-61,65c-10,10-26,26-35,36
		c-14,17-949,945-986,981c-36,36-178,141-190,146c-11,5-29,14-40,21c-38,22-50,28-70,37c-11,5-63,29-115,54s-108,49-125,53
		c-16,4-34,10-40,14c-5,4-21,10-35,13s-70,18-125,32c-84,23-125,27-250,29C6310.1,8646.1,6224.1,8644.1,6202.1,8639.1z"/>
	<path d="M4941.1,2278.1c-3-4-16-8-29-8s-34-4-47-9s-48-16-78-26s-64-26-75-35c-11-10-34-25-52-34c-40-20-122-101-163-161
		c-40-59-86-170-100-242c-15-83-13-207,5-250c8-19,15-43,15-51c0-30,91-201,119-225c16-13,34-34,40-46c7-12,22-26,34-32
		c12-5,40-23,62-40c47-35,116-68,165-79c19-5,60-15,90-23c30-9,61-12,69-7c8,4,22,5,33,2c29-7,181,19,200,35c9,8,21,12,27,9
		c5-4,26,5,47,19c20,14,42,25,49,25s53,39,102,88c102,99,150,176,182,293c49,177,8,412-91,525c-18,22-40,51-47,67c-8,15-20,27-27,27
		s-21,10-31,23c-22,26-78,67-92,67c-6,0-19,10-30,21c-11,12-27,19-35,16s-19,0-25,7c-6,8-26,16-44,20c-17,3-54,11-82,17
		C5072.1,2285.1,4948.1,2289.1,4941.1,2278.1z"/>
</g>
<circle class="st0" cx="498.3" cy="115.3" r="67.5"/>
<circle class="st0" cx="502.2" cy="915.4" r="67.5"/>
</svg>
