<svg xmlns="http://www.w3.org/2000/svg" version="1.1" id="Layer_1" x="0" y="0" viewBox="0 0 3575.1 1030.7" xml:space="preserve">
	<path d="M491.31 51.99c-6.2.8-9 1.5-15.1 4-16.2 6.7-28 17.3-35.7 32.3-9.6 18.8-6.9 49.7 5.6 63.4 2 2.2 3.6 4.4 3.6 4.9 0 1 10.1 10.4 11.2 10.4.4 0 2.7 1.3 5.1 3 2.5 1.6 5.2 3 6 3s2 .7 2.7 1.5 1.6 1.2 2.1 1c.4-.3 2.5.2 4.6 1.1 4.8 2 17.4 3.1 24.3 2.1 7.1-1 11.2-2.3 16.2-4.8 1-.5 2.5-.9 3.3-.9 1.5 0 5.1-2.4 13.9-9.1 17.3-13.1 27.1-43.1 20.7-63.5-3.5-11-10.8-25.3-13.5-26.4-1.3-.5-2.7-1.8-3.1-2.9-.3-1.1-2.2-3-4.1-4.1-1.8-1.2-3.4-2.5-3.4-2.9s-3-2.2-6.7-4.1c-3.8-1.8-7.7-3.8-8.8-4.3-2-1.1-8-2.5-12.5-3.1-1.4-.2-4.1-.6-6-.9s-6.6-.1-10.4.3z"/>
	<path class="st0" d="M239.01 282.89c-66.7 66.9-122.9 123.9-124.8 126.8-4.3 6.4-21.5 39.9-21.5 41.9 0 .8-1.4 6.9-3.1 13.7-5.2 20.6-5.9 24.7-6.9 40.2-.5 8.2-1.2 18.5-1.5 22.8-1.2 18.6 3.2 35.5 16.5 63.2 2.7 5.6 6.6 12.1 8.7 14.5 2.1 2.5 4.5 5.8 5.3 7.3.7 1.5 2.8 4.5 4.5 6.5s4.2 5.5 5.5 7.7c1.3 2.2 3.9 5.8 5.7 8 3.4 4 9.1 10.9 17.3 21 3.7 4.5 17.9 20.1 22 24 .6.5 3.9 3.9 7.5 7.5s7 6.9 7.6 7.5c.6.5 2.1 2.1 3.5 3.5 1.3 1.4 2.8 2.9 3.4 3.5.6.5 3.6 3.6 6.8 6.9 8.1 8.4 39.6 39 43.4 43.2.9 1.1 4.6 4.8 8.2 8.2 3.6 3.5 11.4 10.9 14.8 14.2 6.7 6.5 20.7 16.5 27.8 19.7 2.5 1.2 8.8 4.1 14 6.6 11 5.2 25 9.9 33.1 11.1 2 .3 4.9 1 6.5 1.7 4.6 1.7 27.4 2 37.2.3 4.8-.8 9.8-1.6 11.2-1.8 10.8-1.6 25.9-6.6 26.8-6.6 2.3 0 14.3-7.3 23.8-14.4 10.6-7.9 17-14.2 111.6-108.4 71.7-71.4 81.9-81.9 82.9-85.6.6-2.2 2.2-7.8 3.6-12.4 3.2-11.2 4.5-22.5 4.6-41.7 0-14.7-1.9-38-4.3-51.5-.5-3-1.9-13.2-3-22.5-1.2-9.4-2.6-19.5-3.2-22.5-.7-3-1.2-7.6-1.3-10.2-.2-4.3-1.7-7.8-3.4-7.8-.3 0-19.5 18.9-42.6 42s-47.5 45.5-51.3 49.7c-12.7 14-152.1 152.8-154.4 153.7-1.3.5-4.1 1.8-6.2 2.8-3.4 1.5-5 1.7-12.3.8-8.9-1-14.2-2.3-18.3-4.6-1.4-.8-4.9-2.6-7.8-4-2.9-1.4-48-46.2-52.4-51-.9-1.1-2.2-2.4-2.8-2.9-.6-.6-2.1-2.1-3.4-3.5-1.2-1.4-3.1-3.2-4.2-4.1-1-1-2.9-2.8-4.1-4-1.2-1.3-2.6-2.9-3.3-3.4-.6-.6-4-4-7.5-7.8-3.5-3.7-6.8-6.7-7.4-6.7-.6 0-1.1-.4-1.1-.9s-8.2-9.1-18.1-19.1c-16.9-17-18.4-18.7-21.4-25.9-7-16.1-6.9-31.4.1-45.4 3.8-7.4 8.1-11.9 121.2-125.1 95.2-95.4 117.2-117.9 117.2-120 0-1.6-1-3.5-2.7-4.9-1.4-1.2-3.4-3-4.3-4.1-1-1-2.4-2.5-3.2-3.4-.9-.8-2.5-2.4-3.7-3.6-.84-.83-64.29-64.69-69.1-69.5-.66-.66-4.95-3.66-5.8-2.9-.64.57-55.3 54.8-121.9 121.7z"/>
	<path class="st0" d="M620.21 216.09c-2.2.4-5.6 1-7.5 1.4-5.3 1-18.3 3.4-20.5 3.8-4.1.7-15 4.9-17.6 6.8-1.5 1-3 1.9-3.4 1.9-2 0-21.8 16.1-34.4 28-24.5 23.1-171.8 170.4-172.4 172.5-7.8 26.5-8.8 33-9 56.5-.1 13.9 1.5 33.2 4.3 52 3.4 23.4 5.9 42.4 6.8 52.6.7 6.7 2.4 10.8 4.4 10.2.4-.2 19.8-19.1 43.1-42.1 23.2-23 44.2-43.7 46.6-46s38.8-38.6 80.8-80.7c87.6-87.8 80.1-81.6 97-80 5 .4 10 1.3 11.1 1.9 1.2.6 2.9 1.1 4 1.1s2.5.6 3.1 1.4c.7.8 3.1 2.3 5.4 3.4 2.8 1.3 12.5 10.4 28.7 26.6 13.5 13.5 25.1 25.2 25.8 25.9.7.6 4.1 4.1 7.5 7.6s6.8 6.8 7.5 7.5c.7.6 2.1 1.9 3 2.8s12.8 12.9 26.5 26.6c23.9 24.1 24.8 25.1 28.1 32.8 6.4 14.9 6.8 29.9 1 43.9-2.9 7-3.5 7.6-120.9 125.2-88.6 88.8-118.1 118.9-118.3 120.9-.3 2.2 1 4.1 7.5 10.5 4.3 4.3 76.5 77.1 78 77.8 2.6 1.2 3.9 0 124-120.1 85-84.9 122.7-123.3 125.7-127.8 5.2-7.8 21.6-39.9 21.6-42.2 0-.8 1.2-6 2.6-11.4 1.5-5.5 3-11.9 3.5-14.3.5-2.3 1.3-5.9 1.9-8 .5-2 1.6-14.2 2.4-27.1 1.7-27.4 1.1-35.7-3.6-50-5.1-15.3-15.5-37.2-20.6-43.2-1.5-1.8-4.3-5.8-6.2-8.8s-4-5.8-4.6-6.2c-.7-.5-2.4-2.9-3.9-5.5-1.6-2.7-4.3-6.3-6.1-8.2-1.9-1.9-3.4-3.8-3.4-4.3 0-.4-2.2-3.3-5-6.3-2.7-3-5-5.9-5-6.3s-2-3-4.5-5.7c-2.5-2.8-6.4-7.2-8.8-9.8-2.3-2.7-5.1-5.6-6.1-6.5-1-1-2.6-2.6-3.5-3.6-1.4-1.7-94.9-94.5-98.6-98.1-3.6-3.6-17.8-14.1-19-14.6-1.1-.5-2.9-1.4-4-2.1-3.8-2.2-5-2.8-7-3.7-1.1-.5-6.3-2.9-11.5-5.4s-10.8-4.9-12.5-5.3c-1.6-.4-3.4-1-4-1.4-.5-.4-2.1-1-3.5-1.3s-7-1.8-12.5-3.2c-8.4-2.3-12.5-2.7-25-2.9-8.2-.2-16.8 0-19 .5z"/>
	<path d="M494.11 852.19c-.3.4-1.6.8-2.9.8s-3.4.4-4.7.9-4.8 1.6-7.8 2.6-6.4 2.6-7.5 3.5c-1.1 1-3.4 2.5-5.2 3.4-4 2-12.2 10.1-16.3 16.1-4 5.9-8.6 17-10 24.2-1.5 8.3-1.3 20.7.5 25 .8 1.9 1.5 4.3 1.5 5.1 0 3 9.1 20.1 11.9 22.5 1.6 1.3 3.4 3.4 4 4.6.7 1.2 2.2 2.6 3.4 3.2 1.2.5 4 2.3 6.2 4 4.7 3.5 11.6 6.8 16.5 7.9 1.9.5 6 1.5 9 2.3 3 .9 6.1 1.2 6.9.7.8-.4 2.2-.5 3.3-.2 2.9.7 18.1-1.9 20-3.5.9-.8 2.1-1.2 2.7-.9.5.4 2.6-.5 4.7-1.9 2-1.4 4.2-2.5 4.9-2.5s5.3-3.9 10.2-8.8c10.2-9.9 15-17.6 18.2-29.3 4.9-17.7.8-41.2-9.1-52.5-1.8-2.2-4-5.1-4.7-6.7-.8-1.5-2-2.7-2.7-2.7s-2.1-1-3.1-2.3c-2.2-2.6-7.8-6.7-9.2-6.7-.6 0-1.9-1-3-2.1-1.1-1.2-2.7-1.9-3.5-1.6s-1.9 0-2.5-.7c-.6-.8-2.6-1.6-4.4-2-1.7-.3-5.4-1.1-8.2-1.7-6-1.4-18.4-1.8-19.1-.7z"/>
	<circle class="st0" cx="498.3" cy="115.3" r="67.5"/>
	<circle class="st0" cx="502.2" cy="915.4" r="67.5"/>
	<path class="st0" d="M1298.5 333.1h26.4l-161.6 460h-99.2l199.2-560h96.8l199.2 560h-99.2l-161.6-460zm130.4 327.2h-234.4v-89.6h234.4v89.6zM1738.5 801.1c-25.1 0-45.5-5.1-61.2-15.4-15.7-10.3-27.3-23.4-34.8-39.4-7.5-16-11.2-32.7-11.2-50V474.7h-56.8l8.8-81.6h48v-88l99.2-10.4v98.4h88v81.6h-88v180.8c0 20.3 1.2 34.9 3.6 43.8 2.4 8.9 7.9 14.5 16.4 16.8 8.5 2.3 22.1 3.4 40.8 3.4h27.2l-8.8 81.6h-71.2zM2013.7 801.1c-25.1 0-45.5-5.1-61.2-15.4-15.7-10.3-27.3-23.4-34.8-39.4-7.5-16-11.2-32.7-11.2-50V474.7h-56.8l8.8-81.6h48v-88l99.2-10.4v98.4h88v81.6h-88v180.8c0 20.3 1.2 34.9 3.6 43.8 2.4 8.9 7.9 14.5 16.4 16.8 8.5 2.3 22.1 3.4 40.8 3.4h27.2l-8.8 81.6h-71.2zM2244.9 801.1c-21.3 0-40.8-4.7-58.4-14.2s-31.6-23.1-42-41c-10.4-17.9-15.6-39.5-15.6-64.8 0-22.7 5.3-42.1 15.8-58.2s24.4-29.6 41.6-40.4c17.2-10.8 35.9-19.3 56-25.6 20.1-6.3 40-10.9 59.6-13.8 19.6-2.9 36.9-4.7 51.8-5.2-1.1-22.9-6.9-39.6-17.6-50-10.7-10.4-28.8-15.6-54.4-15.6-17.9 0-35.3 2.5-52.2 7.4-16.9 4.9-36.1 12.6-57.4 23l-8.8-80.8c24-11.7 48.1-20.5 72.2-26.4 24.1-5.9 48.6-8.8 73.4-8.8 29.9 0 55.6 5.3 77.2 16s38.3 27.8 50 51.4c11.7 23.6 17.6 54.7 17.6 93.4v108c0 20 .9 34.5 2.8 43.4 1.9 8.9 5.3 14.6 10.4 17 5.1 2.4 12.4 3.6 22 3.6h12.8l-8.8 81.6h-36c-14.9 0-28.2-1.9-39.8-5.8s-21.5-9.3-29.8-16.2c-8.3-6.9-14.9-15.1-20-24.4-13.1 14.7-30.7 26.1-53 34.2-22.2 8.1-45.4 12.2-69.4 12.2zm41.6-76c8.8 0 19.7-2.3 32.8-7 13.1-4.7 24.8-11.9 35.2-21.8v-91.2c-18.7.8-37.3 3.9-56 9.2-18.7 5.3-34.3 13.2-46.8 23.6-12.5 10.4-18.8 23.5-18.8 39.2 0 16.3 4.3 28.3 12.8 36.2 8.6 7.9 22.2 11.8 40.8 11.8zM2742.5 801.1c-45.9 0-84.3-9.4-115.4-28.2-31.1-18.8-54.5-43.9-70.4-75.2-15.9-31.3-23.8-65.9-23.8-103.8 0-38.1 7.9-73 23.6-104.6 15.7-31.6 39.3-56.9 70.8-75.8s70.9-28.4 118.4-28.4c22.4 0 42.7 2.5 60.8 7.4 18.1 4.9 33.6 11 46.4 18.2l-8 80c-12.3-6.4-26.1-11.7-41.4-16-15.3-4.3-31.4-6.4-48.2-6.4-38.4 0-68.1 11.6-89.2 34.8-21.1 23.2-31.6 53.5-31.6 90.8 0 35.5 10.8 65.3 32.4 89.4 21.6 24.1 50.8 36.2 87.6 36.2 15.7 0 31.3-2.3 46.6-7s30.2-11.1 44.6-19.4l8.8 84c-13.9 7.2-30.6 13-50.2 17.4-19.6 4.4-40.2 6.6-61.8 6.6zM2920.1 793.1v-600h99.2v258.4l-22.4-17.6c16.8-11.7 35.1-22.5 54.8-32.4 19.7-9.9 43.3-14.8 70.8-14.8 35.2 0 63.9 7.8 86 23.4 22.1 15.6 38.4 37.2 48.8 64.8 10.4 27.6 15.6 59.5 15.6 95.8v222.4h-99.2V577.9c0-37.3-6-64.9-18-82.8-12-17.9-31.6-26.8-58.8-26.8-23.2 0-42.2 5.4-57 16.2-14.8 10.8-27.8 25.4-39 43.8l18.4-53.6v318.4h-99.2zM3361.7 332.3v-99.2h99.2v99.2h-99.2zm0 460.8v-400h99.2v400h-99.2z"/>
</svg>