<svg height="512" viewBox="0 0 24 24" width="512" xmlns="http://www.w3.org/2000/svg"><g id="love"><g><path d="m12.001 20.818c-.803 0-1.556-.311-2.121-.875l-6.054-6.055c-2.434-2.449-2.434-6.431-.002-8.878 1.178-1.178 2.755-1.826 4.443-1.826 1.37 0 2.667.428 3.735 1.215 1.073-.791 2.369-1.217 3.732-1.217 1.679 0 3.255.646 4.439 1.824 1.179 1.176 1.827 2.754 1.827 4.443 0 1.688-.647 3.266-1.824 4.439l-6.053 6.055c-.565.565-1.319.875-2.122.875zm-3.734-15.634c-1.154 0-2.229.439-3.027 1.238-1.657 1.668-1.657 4.385.002 6.055l6.051 6.053c.375.373 1.04.373 1.415-.002l6.053-6.053c.8-.797 1.239-1.873 1.239-3.026 0-1.154-.439-2.23-1.238-3.027-.805-.799-1.881-1.24-3.027-1.24s-2.222.439-3.028 1.242c-.391.389-1.022.389-1.413-.002-.798-.799-1.873-1.238-3.027-1.238z"/></g></g></svg>