<svg height="512" viewBox="0 0 32 32" width="512" xmlns="http://www.w3.org/2000/svg"><g id="Layer_2" data-name="Layer 2"><path d="m22.38 2.35a9.1 9.1 0 0 0 -6.38 2.05 9.24 9.24 0 0 0 -12.77 1.08 9.4 9.4 0 0 0 .61 12.81l10.26 10.25a3.09 3.09 0 0 0 2.06 1.14 1.5 1.5 0 0 0 1.08-.48l10.91-10.91a9.39 9.39 0 0 0 .62-12.81 9.14 9.14 0 0 0 -6.39-3.13zm4.36 14.53-10.74 10.7a3 3 0 0 1 -.53-.45l-10.21-10.25a7.41 7.41 0 0 1 -.53-10.08 7.21 7.21 0 0 1 5-2.46h.45a7.16 7.16 0 0 1 4.82 1.83 1.51 1.51 0 0 0 2 0 7.13 7.13 0 0 1 5.25-1.83 7.21 7.21 0 0 1 5 2.46 7.41 7.41 0 0 1 -.51 10.08z"/></g></svg>