<svg xmlns="http://www.w3.org/2000/svg" fill="none" viewBox="0 0 24 24">
    <path fill="#000" d="m5.825 13.934-.725-.689.725.689ZM8 9a4 4 0 0 1 4-4V3a6 6 0 0 0-6 6h2Zm0 2.756V9H6v2.756h2ZM6 16c0-.534.208-1.018.55-1.377L5.1 13.245A3.99 3.99 0 0 0 4 16h2Zm1 0H6v2h1v-2Zm10 0H7v2h10v-2Zm1 0h-1v2h1v-2Zm-.55-1.377c.342.36.55.843.55 1.377h2a3.99 3.99 0 0 0-1.1-2.755l-1.45 1.378ZM16 9v2.756h2V9h-2Zm-4-4a4 4 0 0 1 4 4h2a6 6 0 0 0-6-6v2Zm6.9 8.245c-.608-.64-.9-1.087-.9-1.489h-2c0 1.294.89 2.278 1.45 2.867l1.45-1.378ZM4 16a2 2 0 0 0 2 2v-2H4Zm14 2a2 2 0 0 0 2-2h-2v2ZM6 11.756c0 .402-.292.85-.9 1.49l1.45 1.377C7.11 14.033 8 13.05 8 11.756H6Z"/>
    <path stroke="#000" stroke-linecap="round" stroke-linejoin="round" stroke-width="2" d="M13.798 19.877a2 2 0 0 1-3.62-.05M12 3v1"/>
</svg>